<?xml version="1.0" encoding="utf-8"?>
<!-- Generator: Adobe Illustrator 14.0.0, SVG Export Plug-In . SVG Version: 6.00 Build 43363)  -->
<!DOCTYPE svg PUBLIC "-//W3C//DTD SVG 1.1//EN" "http://www.w3.org/Graphics/SVG/1.1/DTD/svg11.dtd">
<svg version="1.1" id="Calque_1" xmlns="http://www.w3.org/2000/svg" xmlns:xlink="http://www.w3.org/1999/xlink" x="0px" y="0px"
	 width="200px" height="60px" viewBox="0 0 200 60" enable-background="new 0 0 200 60" xml:space="preserve">
<g>
	<g>
		<polygon points="58.144,17.099 55.844,17.099 55.097,17.099 51.835,38.571 52.584,38.563 52.583,38.571 55.626,38.537 
			58.891,17.099 		"/>
		<path d="M76.067,22.793H75.32H61.374h-0.747c-0.289,1.808-0.231,1.441-0.55,3.618l-1.288,8.509
			c-0.319,2.178-0.307,1.941-0.55,3.617h0.748h2.271h0.748c0.188-1.273,0.231-1.439,0.55-3.617l1.176-7.738
			c0.154-0.972,0.47-1.307,1.296-1.307h9.36c0.712,0,0.795,0.335,0.657,1.139l-1.192,7.906c-0.318,2.178-0.342,2.244-0.55,3.617
			h0.747h2.271h0.747c0.25-1.574,0.384-2.445,0.702-4.623l1.041-6.9C79.288,23.966,78.353,22.894,76.067,22.793"/>
		<path d="M91.37,17.099h-3.694h-0.747c-2.848,0-4.051,1.775-4.405,4.221l-2.067,13.6c-0.318,2.178-0.399,2.612-0.551,3.617h0.747
			h2.271h0.748c0.186-1.307,0.232-1.439,0.55-3.617l1.386-9.078h4.094h0.748l0.452-3.048h-0.748h-4.093l0.249-1.575
			c0.091-0.669,0.402-1.072,1.257-1.072h3.353h0.748l0.45-3.048H91.37z"/>
		<path d="M107.906,22.794h-0.748h-9.731h-0.748c-3.018,0-4.101,1.474-4.593,4.757l-0.948,6.229
			c-0.49,3.284,0.134,4.758,3.153,4.758h0.747h9.731h0.748c3.018,0,4.102-1.474,4.592-4.758l0.949-6.229
			C111.549,24.268,110.924,22.794,107.906,22.794 M95.629,35.456c-0.739,0-0.91-0.37-0.78-1.274l1.06-7.034
			c0.129-0.905,0.416-1.272,1.156-1.272h9.446c0.796,0,0.968,0.368,0.837,1.272l-1.059,7.034c-0.131,0.904-0.416,1.274-1.213,1.274
			H95.629z"/>
	</g>
	<g>
		<path fill="#F47936" d="M133.067,17.099h-0.747h-2.498h-0.747l-9.386,16.489l-4.389-16.489h-0.748h-2.498h-0.748l5.537,21.473
			c0.301-0.006,0.543-0.01,0.744-0.014l0.004,0.014c0.683-0.012,1.064-0.021,1.346-0.024c0.283,0.004,0.666,0.013,1.352,0.024
			l0.008-0.014c0.201,0.004,0.441,0.008,0.74,0.014L133.067,17.099z"/>
		<polygon fill="#F47936" points="132.318,22.793 131.571,22.793 129.184,38.537 129.931,38.537 132.201,38.537 132.949,38.537 
			135.338,22.793 134.589,22.793 		"/>
		<path fill="#F47936" d="M141.713,25.875h10.33h0.747l0.448-3.082h-0.746h-10.557h-0.748c-3.815,0-5.96,6.23-2.81,8.341
			c0.481,0.334,1.001,0.436,1.001,0.436s7.832,0.77,8.725,0.904c0.461,0.066,0.9,0.233,1.152,0.535
			c0.231,0.436,0.431,1.172-0.223,1.942c-0.129,0.169-0.417,0.504-1.357,0.504h-10.328H136.6l-0.477,3.081h0.746h10.273h0.171h0.575
			h0.172c5.172-0.134,7.055-8.308,1.611-9.111c-0.863-0.134-7.977-0.804-8.525-0.905c-0.674-0.268-0.819-1.038-0.511-1.841
			C140.939,26.177,141.235,25.942,141.713,25.875"/>
		<path fill="#F47936" d="M164.385,22.793h-4.32l0.509-3.417h-0.749h-2.27h-0.747l-2.162,14.236
			c-0.583,3.919,1.115,4.924,3.251,4.924h0.748h3.723h0.747l0.478-3.082h-0.318h-0.115h-0.314h-0.135h-0.182h-0.116h-0.449h-2.47
			c-1.197,0-1.302-0.269-1.152-1.273l1.248-8.307h4.32h0.747l0.477-3.082H164.385z"/>
		<path fill="#F47936" d="M181.174,22.794h-0.748h-9.988h-0.747l-0.448,3.082h0.746h10.302c0.94,0,1.106,0.301,0.988,1.004
			c-0.114,0.736-0.112,0.771-0.19,1.239h-10.5h-0.748c-3.019,0-4.191,2.178-4.592,4.756l-0.13,0.904
			c-0.491,3.284,0.135,4.758,3.153,4.758h0.746h13.519h0.748c0.165-1.173,0.21-1.34,0.458-2.948l1.043-6.867
			C185.429,24.468,184.561,22.794,181.174,22.794 M170.065,35.456c-1.026,0-1.411-0.202-1.242-1.341l0.248-1.607
			c0.169-1.139,0.61-1.34,1.634-1.34h9.931l-0.417,2.746c-0.23,1.44-0.424,1.542-1.363,1.542H170.065z"/>
	</g>
	<path fill="#F47936" d="M41.649,20.983l-0.054,0c-1.797,0-3.546,0.172-5.197,0.512c-2.246,0.463-4.79,1.432-7.775,2.959
		l-0.431,0.222l0.225,0.427c0.591,1.122,1.373,2.164,2.322,3.098l0.332,0.326l0.335-0.321c3.28-3.145,6.78-5.259,10.402-6.284
		L41.649,20.983z"/>
	<path d="M188.762,19.368c0.306,0,0.605,0.079,0.896,0.236c0.292,0.158,0.52,0.383,0.682,0.675c0.164,0.293,0.245,0.598,0.245,0.916
		c0,0.314-0.08,0.617-0.241,0.908c-0.16,0.289-0.385,0.516-0.675,0.676c-0.289,0.16-0.591,0.24-0.907,0.24s-0.619-0.08-0.908-0.24
		s-0.516-0.387-0.677-0.676c-0.161-0.291-0.241-0.593-0.241-0.908c0-0.318,0.082-0.622,0.246-0.916
		c0.162-0.292,0.391-0.517,0.683-0.675C188.155,19.447,188.455,19.368,188.762,19.368 M188.762,19.673
		c-0.257,0-0.506,0.065-0.748,0.197c-0.242,0.131-0.432,0.318-0.568,0.563s-0.205,0.498-0.205,0.761
		c0,0.263,0.066,0.514,0.201,0.755c0.135,0.24,0.322,0.428,0.564,0.562c0.24,0.134,0.493,0.202,0.756,0.202
		c0.262,0,0.514-0.067,0.756-0.202c0.241-0.134,0.429-0.322,0.563-0.562c0.133-0.241,0.201-0.492,0.201-0.755
		c0-0.264-0.068-0.517-0.205-0.761s-0.326-0.432-0.568-0.563C189.264,19.738,189.016,19.673,188.762,19.673 M187.963,22.202V20.24
		h0.674c0.23,0,0.396,0.019,0.5,0.054c0.103,0.037,0.186,0.1,0.246,0.189c0.062,0.09,0.092,0.186,0.092,0.288
		c0,0.143-0.051,0.268-0.153,0.375c-0.103,0.105-0.239,0.165-0.408,0.178c0.069,0.029,0.124,0.063,0.167,0.104
		c0.079,0.078,0.176,0.208,0.29,0.39l0.239,0.385h-0.389l-0.174-0.31c-0.137-0.243-0.246-0.396-0.33-0.457
		c-0.057-0.045-0.142-0.066-0.254-0.064h-0.186v0.831H187.963z M188.277,21.098h0.385c0.184,0,0.309-0.027,0.377-0.082
		c0.066-0.055,0.1-0.127,0.1-0.216c0-0.058-0.016-0.109-0.048-0.155s-0.077-0.079-0.135-0.102c-0.057-0.022-0.162-0.034-0.317-0.034
		h-0.361V21.098z"/>
	<path d="M52.636,43.799c-0.02-0.076-0.085-0.215-0.3-0.269c-0.098-0.022-0.269,0.017-0.852,0.121
		c-1.694,0.302-6.19,1.108-11.294,1.108h-0.002c-7.051,0-12.476-1.474-16.2-4.377c2.121-3.948,4.431-7.029,6.747-9.436
		c1.565,0.992,3.622,1.792,6.285,2.448c-1.047,1.703-1.917,3.338-2.429,4.787c-0.718,2.036-0.524,3.913-0.515,3.99
		c0.005,0.043,0.024,0.083,0.056,0.112c0.281,0.252,0.557,0.381,0.822,0.381c0.516,0,0.771-0.476,0.782-0.497
		c0.008-0.016,0.014-0.032,0.017-0.049c0.612-3.363,1.734-6.063,3.033-8.33c0.445,0.09,0.899,0.179,1.373,0.262
		c0.02,0.004,0.038,0.006,0.056,0.006c0.061,0,0.121-0.018,0.172-0.051c0.526-0.336,0.769-0.653,0.722-0.941
		c-0.015-0.091-0.083-0.31-0.407-0.391c-0.021-0.006-0.062-0.014-0.121-0.027c-0.255-0.055-0.58-0.127-0.956-0.227
		c1.088-1.679,2.242-3.117,3.296-4.422c0.457-0.566,0.888-1.102,1.287-1.623c1.022-1.336,1.796-2.051,2.361-2.573
		c0.303-0.279,0.542-0.501,0.74-0.739c0.51-0.615,0.739-1.075,0.701-1.402c0.089-0.367-0.358-0.864-0.506-1.014
		c-0.02-0.021-0.043-0.036-0.071-0.044c-5.514-1.775-10.662-2.677-15.303-2.677c-1.753,0-3.385,0.128-4.907,0.355
		c0.009-1.188,0.178-2.49,0.604-3.904l0,0c0.025-0.084,0.017-0.181-0.026-0.258c-0.107-0.195-0.339-0.195-0.437-0.195
		c-0.209,0-0.549,0.042-1.041,0.128c-0.114,0.02-0.209,0.101-0.248,0.21c-0.039,0.114-0.638,1.888-0.772,4.371
		c-2.604,0.572-4.843,1.457-6.765,2.524c0.283-1.772,0.692-3.637,1.234-5.599c0.013-0.046,0.006-0.095-0.019-0.137
		c-0.025-0.041-0.065-0.07-0.112-0.08c-0.053-0.01-0.361-0.064-1.494,0.301c-0.04,0.013-0.073,0.039-0.095,0.075
		c-0.015,0.023-1.438,2.373-2.099,6.042c-0.069,0.387-0.128,0.788-0.176,1.2c-2.232,1.702-3.896,3.626-5.12,5.42
		c-2.884,4.233-3.301,8.436-3.305,8.477c-0.003,0.025,0.001,0.051,0.01,0.074c0.063,0.176,0.255,0.712,0.65,0.712
		c0.323,0,0.53-0.373,0.553-0.416c0.006-0.01,0.011-0.021,0.013-0.03c1.57-5.135,4.069-8.804,7.035-11.403
		c-0.01,2.04,0.196,4.19,0.613,6.2c0.004,0.018,0.008,0.033,0.011,0.051c-0.771,0.943-1.36,1.759-1.759,2.342
		c-1.438,2.105-1.133,3.877-1.12,3.952c0.005,0.022,0.015,0.046,0.03,0.068c0.407,0.573,0.594,0.691,0.746,0.691
		c0.073,0,0.138-0.03,0.185-0.086c0.082-0.097,0.082-0.251,0.071-0.346c0.574-1.544,1.391-3.03,2.441-4.454
		c0.771,2.257,2.166,4.887,4.676,7.146c-2.376,5-2.824,9.237-2.828,9.282c-0.005,0.05,0.011,0.098,0.044,0.134
		c0.234,0.256,0.417,0.373,0.578,0.373c0.086,0,0.163-0.033,0.221-0.096c0.104-0.109,0.118-0.287,0.118-0.369
		c0.996-3.047,2.096-5.766,3.268-8.191c2.093,1.515,4.806,2.773,8.329,3.49c1.87,0.383,3.999,0.577,6.327,0.577h0.001
		c4.084,0,8.801-0.567,14.42-1.736c0.031-0.007,0.059-0.021,0.083-0.042C52.225,44.641,52.724,44.148,52.636,43.799 M18.2,23.857
		c2.257-1.433,4.683-2.387,7.121-2.989c0.059,0.804,0.179,1.646,0.387,2.501c0.032,0.131,0.065,0.258,0.099,0.386
		c-3.096,1.786-5.624,3.991-7.544,6C18.034,27.946,18.013,25.979,18.2,23.857 M28.841,24.88c2.239-1.146,4.992-2.367,7.655-2.917
		c1.617-0.334,3.332-0.503,5.1-0.503c0.028,0,0.056,0.001,0.083,0.001c-4.13,1.169-7.672,3.59-10.604,6.4
		C30.215,27.014,29.444,26.026,28.841,24.88 M45.018,22.673c-1.648,1.329-2.828,3.054-3.979,4.739
		c-0.253,0.372-0.505,0.741-0.761,1.105c-0.795,1.127-1.584,2.27-2.32,3.396c-1.603-0.551-3.569-1.422-5.365-2.759
		C37.509,24.769,42.232,23.219,45.018,22.673 M27.922,22.651c-0.215-0.659-0.409-1.398-0.54-2.214
		c2.03-0.35,4.035-0.487,5.921-0.487c1.666,0,3.287,0.103,4.824,0.269C34.303,20.301,30.893,21.254,27.922,22.651 M26.61,26.081
		c0.656,1.484,1.517,2.711,2.6,3.707c-2.977,3.294-5.183,6.829-6.585,9.4c-0.463-0.462-0.896-0.945-1.291-1.462
		c-1.236-1.624-2.118-3.525-2.652-5.696C20.741,29.88,23.388,27.893,26.61,26.081"/>
</g>
</svg>
